<svg id="레이어_1" data-name="레이어 1" xmlns="http://www.w3.org/2000/svg" viewBox="0 0 340.16 340.16"><defs><style>.cls-1,.cls-2{fill:none;stroke:#231815;stroke-miterlimit:10;stroke-width:15px;}.cls-2{stroke-linecap:round;}</style></defs><path class="cls-1" d="M105.23,80.57h69.92a26.73,26.73,0,0,1,26.73,26.73V237.75a12.37,12.37,0,0,1-12.37,12.37H105.23a12.37,12.37,0,0,1-12.37-12.37V92.94A12.37,12.37,0,0,1,105.23,80.57Z" transform="translate(294.74 330.7) rotate(-180)"/><path class="cls-1" d="M231.69,125.8h0a15.61,15.61,0,0,1,15.61,15.61V244.52a5.61,5.61,0,0,1-5.61,5.61H212.35a6.53,6.53,0,0,1-6.53-6.53V151.67a25.87,25.87,0,0,1,25.87-25.87Z" transform="translate(453.12 375.92) rotate(180)"/><line class="cls-1" x1="224.55" y1="250.13" x2="147.37" y2="250.13"/><line class="cls-2" x1="170.9" y1="118.59" x2="123.84" y2="118.59"/><line class="cls-2" x1="170.9" y1="153.5" x2="123.84" y2="153.5"/><line class="cls-2" x1="170.9" y1="188.41" x2="123.84" y2="188.41"/></svg>