<svg id="레이어_1" data-name="레이어 1" xmlns="http://www.w3.org/2000/svg" viewBox="0 0 340.16 340.16"><defs><style>.cls-1,.cls-2{fill:none;stroke:#5196d2;stroke-miterlimit:10;stroke-width:15px;}.cls-2{stroke-linecap:round;}</style></defs><path class="cls-1" d="M105.23,85.3h69.92A26.73,26.73,0,0,1,201.88,112V242.48a12.37,12.37,0,0,1-12.37,12.37H105.23a12.37,12.37,0,0,1-12.37-12.37V97.67A12.37,12.37,0,0,1,105.23,85.3Z" transform="translate(294.74 340.16) rotate(-180)"/><path class="cls-1" d="M231.69,130.53h0a15.61,15.61,0,0,1,15.61,15.61V249.25a5.61,5.61,0,0,1-5.61,5.61H212.35a6.53,6.53,0,0,1-6.53-6.53V156.4a25.87,25.87,0,0,1,25.87-25.87Z" transform="translate(453.12 385.39) rotate(180)"/><line class="cls-1" x1="224.55" y1="254.86" x2="147.37" y2="254.86"/><line class="cls-2" x1="170.9" y1="123.33" x2="123.84" y2="123.33"/><line class="cls-2" x1="170.9" y1="158.23" x2="123.84" y2="158.23"/><line class="cls-2" x1="170.9" y1="193.14" x2="123.84" y2="193.14"/></svg>